HIERARCHY
ROOT Hips
{
	OFFSET 0.000000 0.000000 0.000000
	CHANNELS 6 Xposition Yposition Zposition Zrotation Yrotation Xrotation 
	JOINT LHipJoint
	{
		OFFSET 0.000000 0.000000 0.000000
		CHANNELS 3 Zrotation Yrotation Xrotation
		JOINT LeftUpLeg
		{
			OFFSET 1.363060 -1.794630 0.839290
			CHANNELS 3 Zrotation Yrotation Xrotation
			JOINT LeftLeg
			{
				OFFSET 2.448110 -6.726130 0.000000
				CHANNELS 3 Zrotation Yrotation Xrotation
				JOINT LeftFoot
				{
					OFFSET 2.562200 -7.039590 0.000000
					CHANNELS 3 Zrotation Yrotation Xrotation
					JOINT LeftToeBase
					{
						OFFSET 0.157640 -0.433110 2.322550
						CHANNELS 3 Zrotation Yrotation Xrotation
						End Site
						{
							OFFSET 0.000000 0.000000 0.000000
						}
					}
				}
			}
		}
	}
	JOINT RHipJoint
	{
		OFFSET 0.000000 0.000000 0.000000
		CHANNELS 3 Zrotation Yrotation Xrotation
		JOINT RightUpLeg
		{
			OFFSET -1.305520 -1.794630 0.839290
			CHANNELS 3 Zrotation Yrotation Xrotation
			JOINT RightLeg
			{
				OFFSET -2.542530 -6.985550 0.000000
				CHANNELS 3 Zrotation Yrotation Xrotation
				JOINT RightFoot
				{
					OFFSET -2.568260 -7.056230 0.000000
					CHANNELS 3 Zrotation Yrotation Xrotation
					JOINT RightToeBase
					{
						OFFSET -0.164730 -0.452590 2.363150
						CHANNELS 3 Zrotation Yrotation Xrotation
						End Site
						{
							OFFSET 0.000000 0.000000 0.000000
						}
					}
				}
			}
		}
	}
	JOINT LowerBack
	{
		OFFSET 0.000000 0.000000 0.000000
		CHANNELS 3 Zrotation Yrotation Xrotation
		JOINT Spine
		{
			OFFSET 0.028270 2.035590 -0.193380
			CHANNELS 3 Zrotation Yrotation Xrotation
			JOINT Spine1
			{
				OFFSET 0.056720 2.048850 -0.042750
				CHANNELS 3 Zrotation Yrotation Xrotation
				JOINT Neck
				{
					OFFSET 0.000000 0.000000 0.000000
					CHANNELS 3 Zrotation Yrotation Xrotation
					JOINT Neck1
					{
						OFFSET -0.054170 1.746240 0.172020
						CHANNELS 3 Zrotation Yrotation Xrotation
						JOINT Head
						{
							OFFSET 0.104070 1.761360 -0.123970
							CHANNELS 3 Zrotation Yrotation Xrotation
							End Site
							{
								OFFSET 0.000000 0.000000 0.000000
							}
						}
					}
				}
				JOINT LeftShoulder
				{
					OFFSET 0.000000 0.000000 0.000000
					CHANNELS 3 Zrotation Yrotation Xrotation
					JOINT LeftArm
					{
						OFFSET 3.362410 1.200890 -0.311210
						CHANNELS 3 Zrotation Yrotation Xrotation
						JOINT LeftForeArm
						{
							OFFSET 4.983000 -0.000000 -0.000000
							CHANNELS 3 Zrotation Yrotation Xrotation
							JOINT LeftHand
							{
								OFFSET 3.483560 -0.000000 -0.000000
								CHANNELS 3 Zrotation Yrotation Xrotation
								JOINT LeftFingerBase
								{
									OFFSET 0.000000 0.000000 0.000000
									CHANNELS 3 Zrotation Yrotation Xrotation
									JOINT LeftHandIndex1
									{
										OFFSET 0.715260 -0.000000 -0.000000
										CHANNELS 3 Zrotation Yrotation Xrotation
										End Site
										{
											OFFSET 0.000000 0.000000 0.000000
										}
									}
								}
								JOINT LThumb
								{
									OFFSET 0.000000 0.000000 0.000000
									CHANNELS 3 Zrotation Yrotation Xrotation
									End Site
									{
										OFFSET 0.000000 0.000000 0.000000
									}
								}
							}
						}
					}
				}
				JOINT RightShoulder
				{
					OFFSET 0.000000 0.000000 0.000000
					CHANNELS 3 Zrotation Yrotation Xrotation
					JOINT RightArm
					{
						OFFSET -3.136600 1.374050 -0.404650
						CHANNELS 3 Zrotation Yrotation Xrotation
						JOINT RightForeArm
						{
							OFFSET -5.241900 -0.000000 -0.000000
							CHANNELS 3 Zrotation Yrotation Xrotation
							JOINT RightHand
							{
								OFFSET -3.444170 -0.000000 -0.000000
								CHANNELS 3 Zrotation Yrotation Xrotation
								JOINT RightFingerBase
								{
									OFFSET 0.000000 0.000000 0.000000
									CHANNELS 3 Zrotation Yrotation Xrotation
									JOINT RightHandIndex1
									{
										OFFSET -0.622530 -0.000000 -0.000000
										CHANNELS 3 Zrotation Yrotation Xrotation
										End Site
										{
											OFFSET 0.000000 0.000000 0.000000
										}
									}
								}
								JOINT RThumb
								{
									OFFSET 0.000000 0.000000 0.000000
									CHANNELS 3 Zrotation Yrotation Xrotation
									End Site
									{
										OFFSET 0.000000 0.000000 0.000000
									}
								}
							}
						}
					}
				}
			}
		}
	}
}
MOTION
Frames: 9
Frame Time: 0.008333
10.830250 17.802761 -22.473899 -137.967490 87.047330 -135.429516 -6.796054 -2.797844 1.631509 -13.863833 1.453540 -2.772461 -0.521775 6.657877 16.486512 1.641764 -11.582220 -1.145836 0.882700 5.989300 16.753300 4.878459 3.625318 -2.504020 13.776778 -2.562236 -32.888528 -4.910674 -14.815593 43.357869 0.726980 -4.970188 -3.445254 -0.000900 -0.192300 0.528300 0.737890 0.041106 5.540217 1.862639 0.388270 -2.530969 5.401712 0.014209 2.217854 -8.271349 -1.824537 -13.318634 2.218361 -0.049291 19.759677 2.046700 -0.716800 13.808400 -0.121025 -1.309063 0.228868 -87.290546 6.235094 26.725822 16.145003 -28.048019 -4.336671 -0.161009 0.076083 -3.329222 18.001855 20.933440 6.650500 -7.125000 0.000000 0.000000 -10.573700 51.492300 -1.706800 2.412216 0.887074 -0.552177 82.382699 -3.111174 4.375341 -10.692564 18.148301 -2.128731 0.694319 -0.319027 -5.785097 -20.834601 12.548496 -5.026400 7.125000 0.000000 0.000000 4.007800 -16.166900 2.740200 
10.891165 17.803581 -22.481987 -125.314370 86.621407 -122.858054 -6.610903 -2.553926 1.721921 -13.204813 1.643593 -2.348744 -0.562014 6.514637 15.990701 1.650824 -11.744927 -0.774109 0.807300 5.734200 16.015200 5.092311 3.844320 -2.563479 14.448301 -2.543314 -32.712081 -4.400761 -14.294823 41.425791 0.732405 -4.980034 -3.018176 -0.002600 -0.331400 0.910600 1.608939 0.056044 5.603608 1.918479 0.420212 -2.485356 5.209346 0.084210 2.288762 -8.290967 -1.801070 -13.281630 2.279865 -0.027953 19.729069 2.106500 -0.710200 13.770600 -0.123476 -1.261066 0.234427 -87.188432 6.314375 26.997094 16.311551 -28.243158 -4.406359 -0.160668 0.073241 -3.466604 18.058132 20.940286 6.675100 -7.125000 0.000000 0.000000 -10.522200 51.511300 -1.703200 2.420598 0.915674 -0.536033 82.349292 -3.273221 5.229378 -10.650993 18.113304 -2.114170 0.718333 -0.314194 -6.658026 -21.156076 12.700667 -5.174900 7.125000 0.000000 0.000000 3.779900 -15.964400 2.600200 
10.942764 17.803888 -22.530412 -134.356313 86.789657 -131.700763 -6.713436 -2.682206 1.714494 -13.738589 1.722009 -2.080565 -0.601743 6.321031 15.508885 1.638097 -11.978713 -0.520115 0.900400 6.047500 16.922400 5.024464 3.766970 -2.546187 14.001531 -3.273711 -33.125851 -3.909645 -13.791961 39.468403 0.651092 -4.620157 -1.890980 -0.010700 -0.667400 1.833900 1.521431 -0.231681 5.510705 1.909983 0.048629 -2.499233 5.129839 -0.128526 2.357817 -8.524432 -1.663090 -13.482672 2.274863 0.259845 19.779894 2.187400 -0.631100 13.841400 -0.119039 -1.286676 0.235470 -87.470451 6.339466 26.839683 16.420525 -28.366106 -4.450955 -0.160160 0.073230 -3.576796 17.740296 20.998116 6.568700 -7.125000 0.000000 0.000000 -10.856100 51.516200 -1.759700 2.383340 0.880006 -0.562349 82.376431 -3.565676 5.211755 -11.138789 18.838809 -2.290290 0.683073 -0.264514 -6.332543 -20.613358 11.902309 -4.705500 7.125000 0.000000 0.000000 4.141100 -16.927400 2.763200 
11.018729 17.806857 -22.474309 -168.348420 87.583219 -165.385820 -7.380232 -2.921380 1.760676 -14.867146 1.974498 -2.004702 -0.661441 6.121511 14.908271 1.611241 -12.123923 -0.401298 0.981900 6.307500 17.679300 4.452410 3.578391 -2.637123 12.787700 -2.957124 -33.101445 -3.487138 -13.237959 37.601929 0.720701 -4.931958 -1.111712 -0.045100 -1.370200 3.768100 -1.230848 -0.245841 5.160124 1.889485 -0.004171 -2.465943 6.187815 -0.270440 2.703549 -8.772597 -1.747494 -13.839065 2.413910 0.226027 19.740920 2.263800 -0.654700 13.899600 -0.115500 -1.283531 0.236420 -87.379134 6.044131 27.074242 16.365980 -28.364841 -4.436515 -0.162374 0.076961 -3.287073 17.165182 20.843825 6.301600 -7.125000 0.000000 0.000000 -11.358300 51.261900 -1.771400 2.390415 0.842043 -0.570676 82.391244 -3.463455 4.972232 -11.353795 19.098258 -2.356824 0.643262 -0.221236 -6.112489 -19.675369 11.207231 -4.204900 7.125000 0.000000 0.000000 4.797800 -17.799100 3.112500 
11.085071 17.810542 -22.465606 -153.341963 87.352489 -150.392237 -7.042259 -2.847681 1.769720 -14.412399 2.371472 -1.495794 -0.698270 5.848284 14.213571 1.607848 -12.202490 -0.073713 0.972800 6.279100 17.596300 4.812237 3.650505 -2.614262 13.206133 -2.901780 -32.987298 -3.027906 -12.777764 35.763646 0.725318 -5.008190 -0.451317 -0.099100 -2.030500 5.589900 -0.672163 -0.259605 5.167220 1.965102 -0.007431 -2.426432 6.340226 -0.282639 2.804560 -8.961476 -1.789574 -13.902628 2.495301 0.210664 19.689026 2.345800 -0.678900 13.880000 -0.110957 -1.278737 0.242670 -87.559737 5.939605 26.544625 16.428062 -28.445787 -4.469225 -0.160204 0.081774 -2.358588 16.955270 20.835111 6.217800 -7.125000 0.000000 0.000000 -11.560100 51.216100 -1.790400 2.420734 0.833384 -0.564828 81.859326 -3.549513 7.082561 -11.218150 18.934287 -2.302180 0.664663 -0.187038 -8.140589 -19.553651 11.032470 -4.114800 7.125000 0.000000 0.000000 4.868100 -18.003100 3.136600 
11.146907 17.815968 -22.480144 -149.834431 87.189854 -146.789531 -6.952147 -2.780649 1.813193 -14.276329 2.605223 -1.161284 -0.735132 5.638158 13.629506 1.602339 -12.310579 0.190464 0.944700 6.190500 17.338000 4.942142 3.723791 -2.622944 13.357338 -3.130364 -33.049758 -2.590220 -12.221201 33.833477 0.725525 -5.076260 0.481370 -0.101800 -2.057100 5.663400 -0.344842 -0.429181 5.075212 2.017325 -0.232902 -2.446398 6.349165 -0.383297 2.786497 -9.086405 -1.715506 -13.780204 2.430299 0.357905 19.736887 2.348100 -0.640400 13.860500 -0.102372 -1.271752 0.239954 -87.884824 6.140383 25.824868 16.544442 -28.595236 -4.529160 -0.157606 0.087642 -1.955027 17.221540 20.936068 6.346700 -7.125000 0.000000 0.000000 -11.338200 51.356700 -1.794700 2.442621 0.822632 -0.566468 81.462464 -3.701373 8.718933 -10.996428 18.651759 -2.220765 0.692009 -0.181369 -9.423478 -19.748562 11.200994 -4.227900 7.125000 0.000000 0.000000 4.720500 -17.795200 3.062500 
11.211201 17.815456 -22.481066 -152.220585 87.138402 -149.105168 -6.983366 -2.779998 1.835652 -14.297281 2.690939 -0.942265 -0.744079 5.569079 13.438412 1.596471 -12.435709 0.406864 0.991900 6.338700 17.770400 4.977760 3.742535 -2.632203 13.246768 -3.053599 -32.891019 -2.134772 -11.589773 31.706172 0.770458 -5.373115 1.436638 -0.032300 -1.159900 3.188900 -0.479630 -0.590682 5.019944 2.038385 -0.448083 -2.452400 6.418578 -0.497794 2.815229 -9.050258 -1.628386 -13.765726 2.385150 0.482317 19.789056 2.320700 -0.588200 13.871500 -0.100120 -1.274912 0.238853 -87.794776 6.080869 25.968183 16.375607 -28.397845 -4.454129 -0.156563 0.086668 -2.328797 17.435253 20.738429 6.370700 -7.125000 0.000000 0.000000 -11.057800 51.192700 -1.704600 2.453855 0.811517 -0.565295 81.693188 -3.525256 7.361710 -10.832714 18.395865 -2.164743 0.677559 -0.208136 -7.833814 -19.657153 11.177954 -4.199500 7.125000 0.000000 0.000000 4.791300 -17.820000 3.106100 
11.285119 17.807471 -22.465095 -143.851385 87.019191 -140.807643 -6.798534 -2.629239 1.878952 -13.953915 2.849546 -0.495886 -0.762557 5.449558 13.074129 1.584334 -12.418681 0.744725 1.043900 6.497500 18.234900 5.226953 3.868396 -2.651737 13.387233 -2.510035 -32.369242 -1.726125 -10.993691 29.738605 0.843838 -5.772852 1.948445 -0.009100 -0.617100 1.695700 -0.224375 -0.645537 5.008080 2.069760 -0.527373 -2.420403 6.453551 -0.520486 2.894761 -9.055407 -1.559741 -13.695296 2.449545 0.564358 19.779889 2.369000 -0.548600 13.825100 -0.104288 -1.250528 0.242957 -87.692156 5.806045 25.818483 15.976352 -27.907114 -4.277918 -0.152647 0.085797 -2.288884 17.527870 20.275005 6.268500 -7.125000 0.000000 0.000000 -10.805000 50.741000 -1.544000 2.464687 0.823597 -0.545948 81.903573 -3.277470 5.978162 -10.642198 18.096704 -2.098405 0.678474 -0.224762 -6.489303 -19.827681 10.955897 -4.159000 7.125000 0.000000 0.000000 4.662200 -18.038000 2.999400 
11.358320 17.803478 -22.451478 -131.866924 86.738367 -128.901902 -6.622778 -2.395484 1.950065 -13.350264 3.085951 -0.157861 -0.772377 5.379957 12.792808 1.590640 -12.418762 0.833719 0.934100 6.156300 17.238700 5.463657 4.068568 -2.678791 13.937715 -2.339072 -31.866456 -1.342992 -10.359969 27.793293 0.828662 -5.787051 2.430609 -0.000100 -0.048500 0.133400 0.324796 -0.668065 5.023045 2.134004 -0.565501 -2.393289 6.432965 -0.491095 2.910051 -8.984823 -1.447552 -13.479945 2.431800 0.674696 19.707847 2.353700 -0.490900 13.690700 -0.098236 -1.214630 0.247242 -87.757453 6.032143 25.321929 16.224994 -28.219781 -4.393412 -0.152008 0.086001 -2.044376 17.452826 20.400197 6.277300 -7.125000 0.000000 0.000000 -10.923000 50.855800 -1.592300 2.500763 0.853153 -0.513416 81.940682 -2.921321 5.232796 -10.214489 17.460304 -1.952906 0.687723 -0.266903 -5.533104 -20.025386 11.241369 -4.321700 7.125000 0.000000 0.000000 4.524500 -17.684700 2.945500 
